<svg id="Layer_1" data-name="Layer 1" xmlns="http://www.w3.org/2000/svg" viewBox="0 0 252 47.46"><defs><style>.cls-1{fill:#a8adc1;}</style></defs><title>Kimono, Footer</title><path class="cls-1" d="M259.62,149.36a15.49,15.49,0,1,0-15.49,15.37,15.4,15.4,0,0,0,15.49-15.37" transform="translate(-28 -117.27)"/><path class="cls-1" d="M209.63,164.73h4.93V146.55c0-7.51-4.23-12.79-11.62-12.79a11.13,11.13,0,0,0-8.8,4.05v-3.29h-4.81v30.21h5V146.25a7.71,7.71,0,0,1,7.92-7.92c4.81,0,7.39,3.41,7.39,8Z" transform="translate(-28 -117.27)"/><path class="cls-1" d="M175.25,149.36a15.49,15.49,0,1,0-15.49,15.37,15.4,15.4,0,0,0,15.49-15.37" transform="translate(-28 -117.27)"/><path class="cls-1" d="M125.2,164.73h5V146c0-7.51-4.22-12.26-11.21-12.26a10.6,10.6,0,0,0-9.44,5.16,10.23,10.23,0,0,0-9.33-5.16,9.78,9.78,0,0,0-8,4.05v-3.29H87.37v30.21h5V146.25c0-4.51,3.05-7.92,7.16-7.92,4.46,0,6.8,2.88,6.8,7.57v18.83h4.93V146.25c0-4.51,3-7.92,7.1-7.92,4.64,0,6.86,2.88,6.86,7.57Z" transform="translate(-28 -117.27)"/><path class="cls-1" d="M73.94,120.48a3.22,3.22,0,1,0-3.21,3.22,3.21,3.21,0,0,0,3.21-3.22" transform="translate(-28 -117.27)"/><polygon class="cls-1" points="14.4 28.62 26.05 17.32 18.73 17.32 4.97 30.84 4.97 0 0 0 0 47.46 4.97 47.46 4.97 37.75 10.77 32.13 21.07 47.46 27.1 47.46 14.4 28.62"/><rect class="cls-1" x="40.17" y="16.49" width="5.11" height="30.98"/><path class="cls-1" d="M273.94,135.64a3,3,0,0,1,.69-1,3.21,3.21,0,0,1,4.44,0,3.08,3.08,0,0,1,.93,2.2,3.22,3.22,0,0,1-.25,1.26,3.41,3.41,0,0,1-.68,1,3.17,3.17,0,0,1-1,.66,3.32,3.32,0,0,1-2.43,0,3.17,3.17,0,0,1-1-.66,3.26,3.26,0,0,1-.69-1,3,3,0,0,1-.25-1.26,3.16,3.16,0,0,1,.25-1.21m.52,2.31a2.73,2.73,0,0,0,.54.85,2.55,2.55,0,0,0,1.86.77,2.34,2.34,0,0,0,1-.2,2.63,2.63,0,0,0,.82-.57,2.37,2.37,0,0,0,.54-.85,2.64,2.64,0,0,0,.2-1.07,2.52,2.52,0,0,0-.2-1,2.57,2.57,0,0,0-1.36-1.41,2.34,2.34,0,0,0-1-.2,2.4,2.4,0,0,0-1,.2,2.46,2.46,0,0,0-.83.57,2.57,2.57,0,0,0-.54.84,2.69,2.69,0,0,0-.2,1,2.82,2.82,0,0,0,.2,1.07m2.59-2.9a1.55,1.55,0,0,1,1,.26,1.13,1.13,0,0,1,.05,1.52,1.26,1.26,0,0,1-.69.27l1,1.62h-.6l-1-1.58h-.61v1.58h-.57v-3.67Zm-.25,1.63h.36a.82.82,0,0,0,.31-.07.46.46,0,0,0,.21-.18.57.57,0,0,0,.08-.34.5.5,0,0,0-.07-.29.58.58,0,0,0-.18-.17.87.87,0,0,0-.26-.08h-1.05v1.16Z" transform="translate(-28 -117.27)"/></svg>