<?xml version="1.0" encoding="utf-8"?>
<!-- Generator: Adobe Illustrator 16.0.0, SVG Export Plug-In . SVG Version: 6.00 Build 0)  -->
<!DOCTYPE svg PUBLIC "-//W3C//DTD SVG 1.1//EN" "http://www.w3.org/Graphics/SVG/1.1/DTD/svg11.dtd">
<svg version="1.1" id="Layer_1" xmlns="http://www.w3.org/2000/svg" xmlns:xlink="http://www.w3.org/1999/xlink" x="0px" y="0px"
	 width="165.656px" height="75.756px" viewBox="0 0 165.656 75.756" enable-background="new 0 0 165.656 75.756"
	 xml:space="preserve">
<g id="layer1_5_" display="none">
	<path display="inline" fill="#1C87C4" d="M24.097,57.608c-1.047-0.312-1.679-0.707-2.028-1.25
		c-0.257-0.401-0.299-0.527-0.241-0.854c0.127-0.725,0.892-1.445,2.13-2.01c0.386-0.178,15.712-5.778,16.125-5.951l0.382-0.151
		l4.203,0.741c4.601,0.811,4.748,0.855,5.699,1.551c1.288,0.956,1.903,2.011,2.958,5.119c0.072,0.213,2.19,6.424,2.409,7.045
		c0.217,0.629,0.362,1.2,0.329,1.286c-0.053,0.146-0.796,0.023-15.685-2.593C31.775,59.034,24.451,57.715,24.097,57.608z"/>
	<path display="inline" fill="#E04727" d="M18.681,54.04c-0.122-0.285-1.844-5.287-3.207-9.279c-0.395-1.17-0.435-1.614-0.238-2.727
		c0.169-0.963,0.201-1.039,0.579-1.583c0.521-0.735,1.16-1.307,1.85-1.658c0.581-0.298,0.914-0.431,4.221-1.687
		c1.102-0.416,29.97-11.404,30.589-11.713c1.266-0.624,2.081-1.271,2.443-1.927c0.267-0.482,0.437-0.359,0.736,0.521
		c0.44,1.325,2.718,8.027,2.783,8.175c0.253,0.527,0.539,1.643,0.575,2.214c0.1,1.757-0.681,3.193-2.257,4.181
		c-0.501,0.312-3.796,1.652-5.396,2.199c-0.145,0.048-25.403,9.669-26.721,10.174c-2.666,1.022-3.59,1.461-4.403,2.101
		c-0.548,0.422-1.057,0.987-1.096,1.208C19.089,54.512,18.828,54.393,18.681,54.04z"/>
	<path display="inline" fill="#1C87C4" d="M24.497,28.334c-0.351-0.18-0.833-0.492-1.061-0.696
		c-0.434-0.377-1.491-1.711-1.468-1.843c0.007-0.044-0.608-1.354-0.753-1.826c-0.059-0.184-1.565-4.601-1.734-5.085
		c-1.391-3.988-1.545-4.506-1.42-4.594c0.052-0.036,7.075,1.185,16.192,2.81c14.893,2.644,16.143,2.883,16.631,3.115
		c1.143,0.539,1.561,1.059,1.433,1.782c-0.104,0.592-0.393,0.941-1.18,1.477c-0.669,0.437-1.184,0.674-2.469,1.148
		c-0.4,0.148-13.761,5.084-14.218,5.25l-0.825,0.292l-4.237-0.757C25.221,28.672,25.143,28.649,24.497,28.334z"/>
</g>
<g>
	<path fill="#13649B" d="M59.898,32.626c0-0.349,0.122-0.648,0.366-0.899c0.251-0.244,0.551-0.366,0.899-0.366h6.475
		c0.614,0.007,1.133,0.23,1.559,0.669c0.432,0.439,0.648,0.962,0.648,1.569c0,0.454-0.122,0.868-0.366,1.245l-7.186,10.292h6.475
		c0.355,0,0.652,0.126,0.889,0.376c0.251,0.252,0.377,0.551,0.377,0.9v0.021c0,0.356-0.125,0.652-0.377,0.89
		c-0.237,0.25-0.533,0.376-0.889,0.376h-7.291c-0.579-0.056-1.063-0.3-1.454-0.732c-0.391-0.425-0.586-0.931-0.586-1.517
		c0-0.383,0.094-0.749,0.283-1.098l7.29-10.439h-5.847c-0.349,0-0.648-0.122-0.899-0.366c-0.244-0.251-0.366-0.551-0.366-0.899
		V32.626z"/>
	<path fill="#13649B" d="M73.758,38.254h4.989c0.342,0,0.638,0.122,0.889,0.366c0.251,0.251,0.376,0.551,0.376,0.9v0.021
		c0,0.349-0.125,0.648-0.376,0.899c-0.251,0.244-0.547,0.365-0.889,0.365h-4.989v3.076c0,0.349,0.122,0.645,0.366,0.889
		c0.244,0.244,0.54,0.366,0.889,0.366h3.734c0.342,0,0.638,0.126,0.889,0.376c0.251,0.252,0.376,0.551,0.376,0.9v0.021
		c0,0.356-0.125,0.652-0.376,0.89c-0.251,0.25-0.547,0.376-0.889,0.376h-3.734c-1.053,0-1.953-0.372-2.699-1.119
		c-0.746-0.746-1.119-1.646-1.119-2.698v-8.703c0-1.053,0.373-1.952,1.119-2.699c0.746-0.746,1.646-1.119,2.699-1.119h3.734
		c0.342,0,0.638,0.125,0.889,0.377c0.251,0.237,0.376,0.533,0.376,0.889v0.021c0,0.349-0.125,0.648-0.376,0.899
		c-0.251,0.251-0.547,0.377-0.889,0.377h-3.734c-0.349,0-0.646,0.122-0.889,0.366c-0.244,0.244-0.366,0.541-0.366,0.889V38.254z"/>
	<path fill="#13649B" d="M95.201,33.997c0.23,0.251,0.346,0.537,0.346,0.858c0,0.049-0.004,0.094-0.011,0.136
		c-0.049,0.384-0.22,0.676-0.512,0.878l-0.021,0.021c-0.23,0.167-0.475,0.251-0.732,0.251c-0.049,0-0.098-0.003-0.146-0.01
		c-0.314-0.028-0.582-0.164-0.805-0.408c-1.109-1.207-2.486-1.81-4.133-1.81c-1.547,0-2.869,0.547-3.964,1.642
		c-1.094,1.095-1.642,2.42-1.642,3.975s0.548,2.881,1.642,3.975c1.095,1.088,2.417,1.632,3.964,1.632
		c1.389,0,2.605-0.45,3.651-1.349c1.038-0.893,1.648-1.887,1.83-2.982h-5.22c-0.348,0-0.648-0.125-0.898-0.376
		c-0.244-0.244-0.367-0.54-0.367-0.889V39.52c0-0.349,0.123-0.649,0.367-0.9c0.25-0.244,0.551-0.366,0.898-0.366h6.643
		c0.348,0,0.648,0.122,0.898,0.366c0.244,0.251,0.37,0.551,0.377,0.9v0.01c0,2.252-0.799,4.178-2.395,5.773
		c-1.604,1.598-3.532,2.396-5.785,2.396c-2.252,0-4.176-0.798-5.773-2.396c-1.596-1.596-2.395-3.521-2.395-5.773
		s0.799-4.177,2.395-5.773c1.597-1.597,3.521-2.396,5.773-2.396C91.579,31.361,93.583,32.24,95.201,33.997z"/>
	<path fill="#13649B" d="M101.509,38.254h4.99c0.342,0,0.638,0.122,0.889,0.366c0.251,0.251,0.377,0.551,0.377,0.9v0.021
		c0,0.349-0.126,0.648-0.377,0.899c-0.251,0.244-0.547,0.365-0.889,0.365h-4.99v3.076c0,0.349,0.123,0.645,0.367,0.889
		s0.539,0.366,0.889,0.366h3.734c0.342,0,0.638,0.126,0.889,0.376c0.251,0.252,0.377,0.551,0.377,0.9v0.021
		c0,0.356-0.126,0.652-0.377,0.89c-0.251,0.25-0.547,0.376-0.889,0.376h-3.734c-1.053,0-1.953-0.372-2.699-1.119
		c-0.746-0.746-1.119-1.646-1.119-2.698v-8.703c0-1.053,0.373-1.952,1.119-2.699c0.746-0.746,1.646-1.119,2.699-1.119h3.734
		c0.342,0,0.638,0.125,0.889,0.377c0.251,0.237,0.377,0.533,0.377,0.889v0.021c0,0.349-0.126,0.648-0.377,0.899
		c-0.251,0.251-0.547,0.377-0.889,0.377h-3.734c-0.35,0-0.645,0.122-0.889,0.366s-0.367,0.541-0.367,0.889V38.254z"/>
	<path fill="#13649B" d="M118.538,32.647c0,0.349-0.125,0.648-0.376,0.899c-0.244,0.245-0.54,0.366-0.89,0.366h-2.552v12.52
		c0,0.349-0.122,0.646-0.366,0.89c-0.251,0.25-0.551,0.376-0.899,0.376h-0.021c-0.35,0-0.648-0.126-0.9-0.376
		c-0.244-0.244-0.365-0.541-0.365-0.89v-12.52h-2.553c-0.342,0-0.638-0.122-0.889-0.366c-0.251-0.251-0.377-0.551-0.377-0.899
		v-0.021c0-0.349,0.126-0.648,0.377-0.899c0.251-0.244,0.547-0.366,0.889-0.366h7.656c0.35,0,0.646,0.122,0.89,0.366
		c0.251,0.251,0.376,0.551,0.376,0.899V32.647z"/>
	<path fill="#13649B" d="M122.263,38.254h4.989c0.342,0,0.638,0.122,0.89,0.366c0.25,0.251,0.376,0.551,0.376,0.9v0.021
		c0,0.349-0.126,0.648-0.376,0.899c-0.252,0.244-0.548,0.365-0.89,0.365h-4.989v3.076c0,0.349,0.122,0.645,0.366,0.889
		s0.54,0.366,0.89,0.366h3.733c0.342,0,0.638,0.126,0.89,0.376c0.25,0.252,0.376,0.551,0.376,0.9v0.021
		c0,0.356-0.126,0.652-0.376,0.89c-0.252,0.25-0.548,0.376-0.89,0.376h-3.733c-1.054,0-1.953-0.372-2.699-1.119
		c-0.746-0.746-1.119-1.646-1.119-2.698v-8.703c0-1.053,0.373-1.952,1.119-2.699c0.746-0.746,1.646-1.119,2.699-1.119h3.733
		c0.342,0,0.638,0.125,0.89,0.377c0.25,0.237,0.376,0.533,0.376,0.889v0.021c0,0.349-0.126,0.648-0.376,0.899
		c-0.252,0.251-0.548,0.377-0.89,0.377h-3.733c-0.35,0-0.646,0.122-0.89,0.366s-0.366,0.541-0.366,0.889V38.254z"/>
	<path fill="#13649B" d="M139.669,31.612c0.641,0.167,0.962,0.575,0.962,1.224v0.031c0,0.411-0.167,0.746-0.502,1.004
		c-0.224,0.174-0.468,0.262-0.732,0.262c-0.111,0-0.227-0.014-0.345-0.042c-0.468-0.118-0.938-0.178-1.412-0.178
		c-1.549,0-2.869,0.547-3.965,1.642c-1.094,1.095-1.642,2.42-1.642,3.975s0.548,2.881,1.642,3.975
		c1.096,1.088,2.416,1.632,3.965,1.632c0.475,0,0.944-0.056,1.412-0.167c0.118-0.028,0.233-0.043,0.345-0.043
		c0.265,0,0.509,0.088,0.732,0.262c0.335,0.252,0.502,0.586,0.502,1.005v0.021c0,0.656-0.321,1.066-0.962,1.234
		c-0.662,0.168-1.339,0.251-2.029,0.251c-2.252,0-4.178-0.798-5.773-2.396c-1.598-1.596-2.396-3.521-2.396-5.773
		s0.799-4.177,2.396-5.773c1.596-1.597,3.521-2.396,5.773-2.396C138.33,31.361,139.007,31.445,139.669,31.612z"/>
	<path fill="#13649B" d="M143.3,31.361c0.342,0,0.637,0.122,0.889,0.366c0.251,0.251,0.377,0.551,0.377,0.899v5.627h5.794v-5.627
		c0-0.349,0.126-0.648,0.377-0.899c0.251-0.244,0.547-0.366,0.889-0.366h0.031c0.342,0,0.638,0.122,0.89,0.366
		c0.251,0.251,0.377,0.551,0.377,0.899v13.807c0,0.356-0.126,0.652-0.377,0.89c-0.252,0.25-0.548,0.376-0.89,0.376h-0.031
		c-0.342,0-0.638-0.126-0.889-0.376c-0.251-0.237-0.377-0.533-0.377-0.89v-5.628h-5.794v5.628c0,0.356-0.126,0.652-0.377,0.89
		c-0.252,0.25-0.547,0.376-0.889,0.376h-0.032c-0.342,0-0.638-0.126-0.889-0.376c-0.251-0.237-0.376-0.533-0.376-0.89V32.626
		c0-0.349,0.125-0.648,0.376-0.899c0.251-0.244,0.547-0.366,0.889-0.366H143.3z"/>
</g>
</svg>
