<?xml version="1.0" standalone="yes"?>

<svg version="1.1" viewBox="0.0 0.0 663.1732283464567 423.34645669291336" fill="none" stroke="none" stroke-linecap="square" stroke-miterlimit="10" xmlns="http://www.w3.org/2000/svg" xmlns:xlink="http://www.w3.org/1999/xlink"><clipPath id="p.0"><path d="m0 0l663.1732 0l0 423.34647l-663.1732 0l0 -423.34647z" clip-rule="nonzero"></path></clipPath><g clip-path="url(#p.0)"><path fill="#000000" fill-opacity="0.0" d="m0 0l663.1732 0l0 423.34647l-663.1732 0z" fill-rule="evenodd"></path><path fill="#000000" fill-opacity="0.0" d="m360.5323 121.35051l0 0c0 -5.5349045 4.4869385 -10.021835 10.02182 -10.021835l0 0c2.657959 0 5.207062 1.05587 7.0865173 2.9353256c1.8794556 1.8794632 2.9353333 4.4285507 2.9353333 7.0865097l0 0c0 5.5349045 -4.4869385 10.021835 -10.021851 10.021835l0 0c-5.5348816 0 -10.02182 -4.486931 -10.02182 -10.021835z" fill-rule="evenodd"></path><path stroke="#0b5394" stroke-width="8.0" stroke-linejoin="round" stroke-linecap="butt" d="m360.5323 121.35051l0 0c0 -5.5349045 4.4869385 -10.021835 10.02182 -10.021835l0 0c2.657959 0 5.207062 1.05587 7.0865173 2.9353256c1.8794556 1.8794632 2.9353333 4.4285507 2.9353333 7.0865097l0 0c0 5.5349045 -4.4869385 10.021835 -10.021851 10.021835l0 0c-5.5348816 0 -10.02182 -4.486931 -10.02182 -10.021835z" fill-rule="evenodd"></path><path fill="#000000" fill-opacity="0.0" d="m331.8962 148.26643l0 0c0 -7.4389954 6.0305176 -13.469513 13.469513 -13.469513l0 0c3.5723572 0 6.9983826 1.4191132 9.524384 3.9451294c2.5260315 2.5260315 3.9451294 5.952057 3.9451294 9.524384l0 0c0 7.4390106 -6.030487 13.469528 -13.469513 13.469528l0 0c-7.4389954 0 -13.469513 -6.0305176 -13.469513 -13.469528z" fill-rule="evenodd"></path><path stroke="#0b5394" stroke-width="8.0" stroke-linejoin="round" stroke-linecap="butt" d="m331.8962 148.26643l0 0c0 -7.4389954 6.0305176 -13.469513 13.469513 -13.469513l0 0c3.5723572 0 6.9983826 1.4191132 9.524384 3.9451294c2.5260315 2.5260315 3.9451294 5.952057 3.9451294 9.524384l0 0c0 7.4390106 -6.030487 13.469528 -13.469513 13.469528l0 0c-7.4389954 0 -13.469513 -6.0305176 -13.469513 -13.469528z" fill-rule="evenodd"></path><path fill="#000000" fill-opacity="0.0" d="m369.9331 191.03795l0 0c0 -11.395035 9.237518 -20.632553 20.632568 -20.632553l0 0c5.4720764 0 10.720062 2.1737823 14.5894165 6.0431366c3.8693542 3.8693542 6.0431213 9.117325 6.0431213 14.5894165l0 0c0 11.39505 -9.237488 20.632568 -20.632538 20.632568l0 0c-11.39505 0 -20.632568 -9.237518 -20.632568 -20.632568z" fill-rule="evenodd"></path><path stroke="#0b5394" stroke-width="12.0" stroke-linejoin="round" stroke-linecap="butt" d="m369.9331 191.03795l0 0c0 -11.395035 9.237518 -20.632553 20.632568 -20.632553l0 0c5.4720764 0 10.720062 2.1737823 14.5894165 6.0431366c3.8693542 3.8693542 6.0431213 9.117325 6.0431213 14.5894165l0 0c0 11.39505 -9.237488 20.632568 -20.632538 20.632568l0 0c-11.39505 0 -20.632568 -9.237518 -20.632568 -20.632568z" fill-rule="evenodd"></path><path fill="#000000" fill-opacity="0.0" d="m363.46762 128.43701l-8.565674 10.300217" fill-rule="evenodd"></path><path stroke="#0b5394" stroke-width="8.0" stroke-linejoin="round" stroke-linecap="butt" d="m363.46762 128.43701l-8.565674 10.300217" fill-rule="evenodd"></path><path fill="#000000" fill-opacity="0.0" d="m354.8901 157.79083l21.071564 18.651733" fill-rule="evenodd"></path><path stroke="#0b5394" stroke-width="12.0" stroke-linejoin="round" stroke-linecap="butt" d="m354.8901 157.79083l21.071564 18.651733" fill-rule="evenodd"></path><path fill="#000000" fill-opacity="0.0" d="m48.531498 211.6693l566.1102 0l0 100.34645l-566.1102 0z" fill-rule="evenodd"></path><path fill="#0b5394" d="m123.746124 247.56502l-13.4375 23.999985l-13.4375 0l-13.4375 -23.999985l0 37.437485l-17.28125 0l0 -67.20311l18.234375 0l19.203125 35.515625l19.203125 -35.515625l18.234375 0l0 67.20311l-17.28125 0l0 -37.437485zm48.962463 -11.515625l0 48.95311l-16.796875 0l0 -35.999985l-7.203125 0l0 -12.953125l24.0 0zm-16.796875 -19.203125l16.796875 0l0 13.4375l-16.796875 0l0 -13.4375zm54.719986 30.234375q-5.09375 0 -11.53125 1.921875l0 35.999985l-16.796875 0l0 -50.874985l14.890625 0l0.953125 4.796875q4.515625 -2.984375 9.265625 -4.375q4.75 -1.390625 8.015625 -1.390625l4.3125 0q6.53125 0 10.46875 3.9375q3.9375 3.9375 3.9375 10.46875l0 37.437485l-16.796875 0l0 -34.562485q0 -1.4375 -0.96875 -2.390625q-0.953125 -0.96875 -2.390625 -0.96875l-3.359375 0zm68.15184 37.92186l-0.953125 -4.796875q-4.515625 2.96875 -9.265625 4.359375q-4.75 1.390625 -8.015625 1.390625l-4.328125 0q-6.515625 0 -10.453125 -3.921875q-3.9375 -3.9375 -3.9375 -10.46875l0 -22.07811q0 -7.203125 4.078125 -11.28125q4.078125 -4.078125 11.28125 -4.078125l19.671875 0l0 -16.328125l16.8125 0l0 67.20311l-14.890625 0zm-13.4375 -12.953125q5.09375 0 11.515625 -1.921875l0 -23.04686l-14.390625 0q-3.84375 0 -3.84375 3.84375l0 17.76561q0 1.4375 0.953125 2.40625q0.96875 0.953125 2.40625 0.953125l3.359375 0z" fill-rule="nonzero"></path><path fill="#3c3c3c" d="m362.7791 285.0025l-18.234375 0l-23.03125 -40.312485l0 40.312485l-17.28122 0l0 -67.20311l18.234344 0l23.046875 40.32811l0 -40.32811l17.265625 0l0 67.20311zm62.40811 -14.40625q0 7.203125 -4.078125 11.28125q-4.078125 4.078125 -11.28125 4.078125l-22.078125 0q-7.203125 0 -11.28125 -4.078125q-4.078125 -4.078125 -4.078125 -11.28125l0 -22.07811q0 -7.203125 4.078125 -11.28125q4.078125 -4.078125 11.28125 -4.078125l22.078125 0q7.203125 0 11.28125 4.078125q4.078125 4.078125 4.078125 11.28125l0 22.07811zm-16.796875 -20.64061q0 -3.828125 -3.84375 -3.828125l-11.515625 0q-3.84375 0 -3.84375 3.828125l0 19.20311q0 3.84375 3.84375 3.84375l11.515625 0q3.84375 0 3.84375 -3.84375l0 -19.20311zm61.433075 35.04686l-0.953125 -4.796875q-4.515625 2.96875 -9.265625 4.359375q-4.75 1.390625 -8.015625 1.390625l-4.328125 0q-6.515625 0 -10.453125 -3.921875q-3.9375 -3.9375 -3.9375 -10.46875l0 -22.07811q0 -7.203125 4.078125 -11.28125q4.078125 -4.078125 11.28125 -4.078125l19.671875 0l0 -16.328125l16.8125 0l0 67.20311l-14.890625 0zm-13.4375 -12.953125q5.09375 0 11.515625 -1.921875l0 -23.04686l-14.390625 0q-3.84375 0 -3.84375 3.84375l0 17.76561q0 1.4375 0.953125 2.40625q0.96875 0.953125 2.40625 0.953125l3.359375 0zm57.60498 -26.89061q-3.84375 0 -3.84375 3.84375l0 5.28125l16.3125 0l0 -5.28125q0 -3.84375 -3.828125 -3.84375l-8.640625 0zm27.359375 38.89061q-18.53125 1.90625 -33.609375 1.90625q-6.515625 0 -10.453125 -3.921875q-3.9375 -3.9375 -3.9375 -10.46875l0 -23.04686q0 -7.203125 4.078125 -11.28125q4.078125 -4.078125 11.28125 -4.078125l19.203125 0q7.1875 0 11.265625 4.078125q4.09375 4.078125 4.09375 11.28125l0 17.76561l-33.125 0l0 3.84375q0 1.4375 0.953125 2.40625q0.96875 0.953125 2.40625 0.953125q9.5 0 27.84375 -1.4375l0 12.0zm8.631226 -12.484375q19.5 1.4375 30.71875 1.4375q1.453125 0 2.40625 -0.953125q0.953125 -0.96875 0.953125 -2.40625l0 -3.359375l-20.640625 0q-6.515625 0 -10.453125 -3.9375q-3.9375 -3.9375 -3.9375 -10.468735l0 -3.359375q0 -6.53125 3.9375 -10.453125q3.9375 -3.9375 10.453125 -3.9375l32.640625 0l0 12.46875l-26.875 0q-1.4375 0 -2.40625 0.96875q-0.953125 0.953125 -0.953125 2.390625q0 1.453125 0.953125 2.40625q0.96875 0.953125 2.40625 0.953125l17.28125 0q6.53125 0 10.46875 3.9374847q3.9375 3.9375 3.9375 10.46875l0 3.84375q0 6.53125 -3.9375 10.46875q-3.9375 3.921875 -10.46875 3.921875q-16.984375 0 -36.484375 -1.90625l0 -12.484375z" fill-rule="nonzero"></path></g></svg>

