<?xml version="1.0" encoding="UTF-8" standalone="no"?>
<!-- Created with Inkscape (http://www.inkscape.org/) -->

<svg
   xmlns:dc="http://purl.org/dc/elements/1.1/"
   xmlns:cc="http://creativecommons.org/ns#"
   xmlns:rdf="http://www.w3.org/1999/02/22-rdf-syntax-ns#"
   xmlns:svg="http://www.w3.org/2000/svg"
   xmlns="http://www.w3.org/2000/svg"
   xmlns:sodipodi="http://sodipodi.sourceforge.net/DTD/sodipodi-0.dtd"
   xmlns:inkscape="http://www.inkscape.org/namespaces/inkscape"
   width="7000"
   height="1128.4519"
   viewBox="0 0 6999.999 1128.4523"
   id="svg2"
   version="1.1"
   inkscape:version="0.48.5 r10040"
   sodipodi:docname="OpenNordLogoVielfalt.svg">
  <defs
     id="defs4">
    <marker
       inkscape:stockid="TriangleInL"
       orient="auto"
       refY="0"
       refX="0"
       id="TriangleInL"
       style="overflow:visible"
       inkscape:isstock="true">
      <path
         id="path4365"
         d="m 5.77,0 -8.65,5 0,-10 8.65,5 z"
         style="fill:#000000;fill-opacity:1;fill-rule:evenodd;stroke:#000000;stroke-width:1pt;stroke-opacity:1"
         transform="scale(-0.8,-0.8)"
         inkscape:connector-curvature="0" />
    </marker>
    <marker
       inkscape:stockid="Arrow1Lstart"
       orient="auto"
       refY="0"
       refX="0"
       id="marker7074"
       style="overflow:visible"
       inkscape:isstock="true">
      <path
         id="path7076"
         d="M 0,0 5,-5 -12.5,0 5,5 0,0 z"
         style="fill:#000000;fill-opacity:1;fill-rule:evenodd;stroke:#000000;stroke-width:1pt;stroke-opacity:1"
         transform="matrix(0.8,0,0,0.8,10,0)"
         inkscape:connector-curvature="0" />
    </marker>
    <marker
       inkscape:stockid="Arrow1Lstart"
       orient="auto"
       refY="0"
       refX="0"
       id="marker4628"
       style="overflow:visible"
       inkscape:isstock="true">
      <path
         id="path4630"
         d="M 0,0 5,-5 -12.5,0 5,5 0,0 z"
         style="fill:#000000;fill-opacity:1;fill-rule:evenodd;stroke:#000000;stroke-width:1pt;stroke-opacity:1"
         transform="matrix(0.8,0,0,0.8,10,0)"
         inkscape:connector-curvature="0" />
    </marker>
    <marker
       inkscape:stockid="Arrow1Lstart"
       orient="auto"
       refY="0"
       refX="0"
       id="marker4600"
       style="overflow:visible"
       inkscape:isstock="true">
      <path
         id="path4602"
         d="M 0,0 5,-5 -12.5,0 5,5 0,0 z"
         style="fill:#000000;fill-opacity:1;fill-rule:evenodd;stroke:#000000;stroke-width:1pt;stroke-opacity:1"
         transform="matrix(0.8,0,0,0.8,10,0)"
         inkscape:connector-curvature="0" />
    </marker>
    <marker
       inkscape:stockid="Arrow1Lstart"
       orient="auto"
       refY="0"
       refX="0"
       id="Arrow1Lstart"
       style="overflow:visible"
       inkscape:isstock="true">
      <path
         id="path4232"
         d="M 0,0 5,-5 -12.5,0 5,5 0,0 z"
         style="fill:#000000;fill-opacity:1;fill-rule:evenodd;stroke:#000000;stroke-width:1pt;stroke-opacity:1"
         transform="matrix(0.8,0,0,0.8,10,0)"
         inkscape:connector-curvature="0" />
    </marker>
  </defs>
  <sodipodi:namedview
     id="base"
     pagecolor="#ffffff"
     bordercolor="#666666"
     borderopacity="1.0"
     inkscape:pageopacity="0.0"
     inkscape:pageshadow="2"
     inkscape:zoom="0.12374369"
     inkscape:cx="3756.9813"
     inkscape:cy="-196.39217"
     inkscape:document-units="px"
     inkscape:current-layer="layer1"
     showgrid="false"
     width="298mm"
     fit-margin-top="0"
     inkscape:window-width="1920"
     inkscape:window-height="1080"
     inkscape:window-x="0"
     inkscape:window-y="24"
     inkscape:window-maximized="0"
     fit-margin-left="0"
     fit-margin-right="0"
     fit-margin-bottom="0"
     showguides="false" />
  <metadata
     id="metadata7">
    <rdf:RDF>
      <cc:Work
         rdf:about="">
        <dc:format>image/svg+xml</dc:format>
        <dc:type
           rdf:resource="http://purl.org/dc/dcmitype/StillImage" />
        <dc:title></dc:title>
      </cc:Work>
    </rdf:RDF>
  </metadata>
  <g
     inkscape:label="Ebene 1"
     inkscape:groupmode="layer"
     id="layer1"
     transform="translate(-73.231085,-161.63377)">
    <g
       style="font-size:40px;font-style:normal;font-weight:normal;line-height:125%;letter-spacing:0px;word-spacing:0px;fill:#000000;fill-opacity:1;stroke:none;font-family:sans-serif"
       id="text3505"
       transform="translate(5.0000015,-99.285748)" />
    <g
       id="text3437"
       style="font-size:40px;font-style:normal;font-weight:normal;line-height:125%;letter-spacing:0px;word-spacing:0px;fill:#000000;fill-opacity:1;stroke:none;font-family:sans-serif"
       transform="translate(5.0000015,-99.285748)" />
    <text
       xml:space="preserve"
       style="font-size:217.34577942px;font-style:normal;font-weight:normal;line-height:125%;letter-spacing:0px;word-spacing:0px;fill:#000000;fill-opacity:1;stroke:none;font-family:Sans"
       x="1859.3953"
       y="866.51428"
       id="text4228"
       sodipodi:linespacing="125%"><tspan
         sodipodi:role="line"
         id="tspan4230"
         x="1859.3953"
         y="866.51428"
         style="font-style:normal;font-variant:normal;font-weight:normal;font-stretch:normal;font-family:Droid Sans Ethiopic;-inkscape-font-specification:Droid Sans Ethiopic" /></text>
    <text
       xml:space="preserve"
       style="font-size:785.12506104px;font-style:normal;font-variant:normal;font-weight:normal;font-stretch:normal;line-height:125%;letter-spacing:0px;word-spacing:0px;fill:#000000;fill-opacity:1;stroke:none;font-family:Ubuntu;-inkscape-font-specification:Ubuntu"
       x="2344.8113"
       y="956.552"
       id="text4236"
       sodipodi:linespacing="125%"><tspan
         sodipodi:role="line"
         id="tspan4238"
         x="2344.8113"
         y="956.552"><tspan
           style="font-weight:500;-inkscape-font-specification:Ubuntu Medium"
           id="tspan4282">penNord</tspan></tspan></text>
    <path
       style="font-size:medium;font-style:normal;font-weight:normal;line-height:125%;letter-spacing:0px;word-spacing:0px;fill:#000000;fill-opacity:1;stroke:none;font-family:sans-serif"
       inkscape:connector-curvature="0"
       d="m 1782.6689,201.93451 -3.9548,0.61781 -11.865,0 -3.9547,0.74153 -3.9548,0 -3.9554,0.61835 -3.9551,0 -3.9548,0.7415 -4.6963,0.61785 -3.9547,0 -3.9551,0.61785 -3.9551,0.74149 -4.5731,0.61832 7.9106,55.49197 -4.697,0.61785 -3.9552,0.61785 -3.9546,0.61786 -3.9548,0.74199 -3.3371,0.61782 -3.9551,0.61785 -3.8309,0.74149 -3.3371,0.61785 -3.9548,0.61836 -3.3374,1.35934 -3.9551,0.61781 -3.3364,0.61785 -3.9555,0.742 -3.3371,0.61789 -3.2136,1.35934 -3.9547,0.61786 -3.3367,1.35988 -3.3375,0.61782 -3.9547,1.35934 -3.337,0.61835 -3.2134,1.35934 -4.0781,0.61785 -3.2136,1.35931 -3.2134,1.35985 -4.0781,1.23574 -3.2133,1.35981 -4.0789,1.35935 -3.2133,1.35934 -3.9548,1.2362 -3.9546,1.97723 -3.9555,1.35985 -3.3368,1.97716 -22.4939,-52.15801 -3.9546,1.97769 -3.9552,1.9772 -3.9547,1.23617 -3.9555,2.10087 -3.9548,1.97767 -3.9551,1.97722 -3.955,1.9777 -3.9552,1.9772 -3.9547,1.97766 -3.9555,1.97769 -3.3364,1.9772 -3.955,2.59552 -3.9552,1.9777 -3.9551,1.97716 -3.3367,1.97773 -3.9548,2.71923 -3.9551,1.97719 -3.2132,2.59551 -3.9552,1.9772 -3.955,2.59555 -3.3371,2.71919 -3.9551,1.97767 -3.9548,2.59507 -3.337,2.7192 -3.9548,2.59555 -3.3371,2.59551 -3.9548,2.59551 -3.3371,2.71873 -3.955,3.33701 -3.9548,2.59554 -3.2133,3.33704 -3.9546,2.59551 34.9764,42.88738 -2.7193,1.97766 -2.5953,1.9772 -1.9775,1.97765 -2.7191,2.59549 -2.5956,2.10089 -2.5952,1.85405 -2.7191,2.71873 -1.9776,1.97756 -2.5952,2.59558 -2.5952,1.9772 -2.7194,2.719 -2.5955,1.97793 -1.9772,2.59558 -2.5952,2.59485 -2.7195,2.71945 -2.5956,1.97757 -2.7186,2.59485 -1.8542,2.59558 -2.719,2.71936 -2.5955,3.21333 -2.7188,2.719 -2.5956,2.59558 -2.5955,3.3371 -1.9769,2.59522 -2.7194,3.33711 -2.5956,2.59521 -2.5952,3.33702 -2.719,3.21369 -2.5956,3.33665 -1.9776,3.33711 -2.7187,3.33711 -2.5956,3.33702 -44.248,-32.38163 -1.9779,3.33711 -1.9772,2.59558 -2.5952,3.33711 -1.9776,3.21323 -1.9772,2.59558 -2.1017,3.33711 -1.8534,3.33702 -2.7191,3.33711 -1.9778,3.21323 -1.9772,3.33711 -1.978,3.33702 -1.9768,3.21332 -1.9779,3.33665 -1.9776,3.21369 -1.9772,4.07818 -1.9779,3.21323 -1.9768,4.07864 -1.978,3.2136 -1.9775,3.95476 -1.9772,3.33702 -1.9775,3.95476 -1.9772,3.95512 -1.9779,3.95476 -1.3596,3.95549 -1.9775,3.95476 -1.9772,3.95467 -1.9776,3.95513 -1.9772,3.95476 -1.3599,4.69629 -1.8541,3.9554 -1.9771,4.57278 -2.101,4.57277 50.7972,19.7749 -1.2353,3.33629 -1.3603,3.33711 -1.3591,3.33711 -1.2357,3.21359 -1.3599,3.33711 -0.6177,3.33665 -1.3595,3.21369 -1.2361,3.33702 -1.3595,3.33711 -0.7414,3.95476 -1.2362,3.21323 -0.7414,3.33711 -1.236,3.95476 -0.6181,3.33702 -1.3595,3.33711 -0.7415,3.83125 -0.6177,3.33711 -0.618,4.07854 -1.3595,3.21332 -0.6181,3.95467 -0.6176,3.95513 -0.7415,3.95549 -0.6188,3.95476 -1.3592,3.95476 -0.618,3.95513 -0.7415,3.95467 -0.618,3.95476 -0.618,3.95512 -0.7416,3.95513 -0.6176,4.6962 -0.618,3.95476 0,4.57278 -52.1579,-5.93224 -0.7419,3.95467 0,3.95549 -0.6177,3.95476 0,7.29187 -0.618,3.9554 0,73.16627 0.618,3.95513 0,7.29251 0.6177,3.95476 0,3.95476 0.7419,3.95476 52.1579,-5.93233 0,4.57278 0.618,3.95476 0.6176,4.69693 0.7416,3.95549 0.618,3.95476 0.618,3.95476 0.7415,3.95513 0.618,3.95476 1.3592,3.9554 0.6188,3.95476 0.7415,3.95476 0.6176,3.95513 0.6181,3.95512 1.3595,3.21323 0.618,4.07819 0.6177,3.33747 0.7415,3.83088 1.3595,3.33711 0.6181,3.33748 1.236,3.95476 0.7414,3.33665 1.2362,3.21332 0.7414,3.95504 1.3595,3.33711 1.2361,3.3371 1.3595,3.21324 0.6177,3.3371 1.3599,3.33702 1.2357,3.21332 1.3591,3.33702 1.3603,3.33711 1.2353,3.33674 -50.7972,19.77518 2.101,4.57241 1.9771,4.57314 1.8541,3.95476 1.3599,4.6962 1.9772,3.95476 1.9776,3.95513 1.9772,3.95512 1.9775,3.95513 1.3596,3.95503 1.9779,3.95476 1.9772,3.95476 1.9775,3.95513 1.9772,3.33675 1.9775,3.9554 1.978,3.21333 1.9768,4.07818 1.9779,3.21323 1.9772,4.07864 1.9776,3.21359 1.9779,3.33675 1.9768,3.21359 1.978,3.33702 1.9772,3.33711 1.9778,3.21325 2.7191,3.3371 1.8534,3.3371 2.1017,3.3363 1.9772,2.5957 1.9776,3.2132 2.5952,3.3374 1.9772,2.5953 1.9779,3.3374 44.248,-32.3813 2.5956,3.33702 2.7187,3.33638 1.9776,3.3371 2.5956,3.3371 2.719,3.2132 2.5952,3.3372 2.5956,2.5955 2.7194,3.3371 1.9769,2.5955 2.5955,3.3371 2.5956,2.5956 2.7188,2.7187 2.5955,3.2133 2.719,2.7193 1.8542,2.5952 2.7186,2.5957 2.5956,1.9771 2.7195,2.7191 2.5952,2.5952 1.9772,2.596 2.5955,1.9772 2.7194,2.7191 2.5952,1.9778 2.5952,2.5953 1.9776,1.9775 2.7191,2.7187 2.5952,1.8538 2.5956,2.101 2.7191,2.5959 1.9775,1.9772 2.5953,1.9776 2.7193,1.9775 -34.9764,42.8875 3.9546,2.5952 3.2133,3.3374 3.9548,2.5952 3.955,3.3371 3.3371,2.7191 3.9548,2.5948 3.3371,2.5964 3.9548,2.5948 3.337,2.719 3.9548,2.5959 3.9551,1.9776 3.3371,2.7187 3.955,2.5956 3.9552,1.9772 3.2132,2.5952 3.9551,1.978 3.9548,2.719 3.3367,1.9772 3.9551,1.9775 3.9552,1.9772 3.955,2.596 3.3364,1.9768 3.9555,1.9779 3.9547,1.9776 3.9552,1.9772 3.955,1.9775 3.9551,1.9772 3.9548,1.978 3.9555,2.1013 3.9547,1.2357 3.9552,1.9776 3.9546,1.9771 22.4939,-52.1578 3.3368,1.9779 3.9555,1.3592 3.9546,1.9772 3.9548,1.236 3.2133,1.3603 4.0789,1.3592 3.2133,1.359 4.0781,1.2365 3.2134,1.3591 3.2136,1.3596 4.0781,0.6176 3.2134,1.3599 3.337,0.6177 3.9547,1.3603 3.3375,0.6172 3.3367,1.3596 3.9547,0.618 3.2136,1.3599 3.3371,0.6177 3.9555,0.7419 3.3364,0.6176 3.9551,0.6177 3.3374,1.3599 3.9548,0.618 3.3371,0.6176 3.8309,0.7416 3.9551,0.618 3.3371,0.618 3.9548,0.7415 3.9546,0.6181 3.9552,0.6183 4.697,0.6173 -7.9106,55.4921 4.5731,0.6181 3.9551,0.7414 3.9551,0.6181 3.9547,0 4.6963,0.6181 3.9548,0.7414 3.9551,0 3.9554,0.618 3.9548,0 3.9547,0.7416 11.865,0 3.9548,0.6176 31.0221,0 3.3371,-0.6176 7.9094,0 3.9548,-0.7416 3.9555,0 3.9551,-0.618 3.9551,0 3.9548,-0.7414 3.9546,-0.6181 3.9548,0 -5.932,-57.4697 3.9552,-0.6173 4.6963,-0.6183 3.9547,-0.6181 3.9548,0 4.5731,-0.7415 3.9551,-1.236 4.5727,-0.7416 3.9548,-0.6176 4.6966,-0.618 3.9548,-0.6184 3.955,-1.3592 4.5725,-0.6176 3.9547,-1.3596 3.9555,-0.7415 3.9551,-1.2364 4.6962,-1.3596 3.9552,-0.6172 3.9547,-1.3603 3.9548,-1.3592 3.9555,-1.236 3.9547,-1.3596 3.9547,-1.3591 4.079,-1.2365 3.8309,-1.359 3.9547,-1.3592 3.9552,-1.978 3.9551,-1.3599 3.3366,-1.2356 3.9555,-1.978 3.9548,-1.3591 3.3371,-1.9772 3.9551,-1.2361 22.4931,52.7752 3.9548,-1.3598 3.9555,-1.9779 3.2136,-1.9769 3.9547,-1.3595 3.3371,-1.9776 3.9548,-1.9776 3.3374,-1.236 3.2132,-1.9772 3.9548,-2.101 3.3371,-1.9779 3.3371,-1.2358 3.2132,-1.9775 3.4609,-1.9775 3.2132,-1.9772 3.9548,-1.9779 3.3371,-1.9768 2.5956,-1.978 3.3364,-1.9772 3.2139,-1.9775 3.3368,-2.101 3.3366,-1.8542 3.3375,-1.9775 2.5952,-2.101 3.3371,-1.9772 2.5956,-2.596 3.337,-1.9771 2.5953,-1.978 3.3367,-1.9772 2.7194,-2.5952 3.2133,-1.9772 2.719,-1.9775 2.5959,-2.7194 -34.9772,-46.0986 3.3368,-1.9776 2.5959,-2.7186 3.2132,-2.5963 3.3368,-1.9772 3.3374,-2.5952 2.7183,-2.7191 3.214,-3.2132 3.3367,-2.7195 3.2133,-2.5952 2.5955,-2.5956 3.3371,-3.3371 3.3368,-2.719 3.2136,-3.2132 2.719,-3.3368 3.3371,-2.5959 3.3371,-3.3368 2.5956,-3.337 3.3371,-3.3371 2.5948,-2.5956 2.5956,-3.3367 3.337,-3.2136 2.7191,-3.3371 2.5956,-3.3367 2.5952,-2.5959 2.5956,-3.2133 2.7191,-3.337 1.9772,-3.3364 2.5956,-2.5956 2.1013,-3.3371 2.5956,-2.719 1.9772,-3.21332 1.9776,-2.59595 46.2252,34.23507 2.5955,-3.2133 1.9776,-3.3367 2.7187,-2.7194 1.8541,-3.2133 2.1011,-3.337 2.5955,-3.2136 1.9776,-3.3371 1.9772,-3.33677 2.5956,-3.95512 1.9775,-3.33629 1.9772,-3.21405 1.9779,-3.95504 1.9775,-3.33674 1.9772,-3.33711 1.9776,-3.95513 1.9772,-3.33701 2.1014,-3.95476 1.8534,-3.21324 2.1013,-3.95513 1.9776,-3.33674 1.8538,-3.95513 1.3598,-3.33702 1.9772,-3.95476 1.3592,-3.21332 1.9779,-3.95476 1.3595,-3.33738 1.9776,-3.33675 1.2357,-3.95512 1.3595,-3.33702 1.2357,-3.21332 1.483,-3.33702 1.2364,-3.33674 -53.3922,-21.62932 1.8541,-4.07855 1.3595,-3.95476 1.3599,-3.95476 1.3592,-3.95503 1.2357,-3.95476 1.3599,-4.57278 1.3595,-3.95549 1.2361,-3.95476 1.3592,-3.95476 1.3594,-3.95513 1.2361,-3.95476 0.7419,-4.6962 1.2353,-3.95549 1.3599,-3.95476 0.618,-3.95503 1.3592,-3.95476 0.6183,-3.95513 0.6178,-3.95476 1.3594,-3.95549 0.7416,-3.95476 0.6176,-3.95504 0.6184,-3.95476 0.7415,-3.95476 0.4956,-3.95476 0.7416,-3.95549 0,-4.07818 0.7415,-3.21396 0.618,-3.95476 0,-3.9555 0.7415,-3.95476 0,-7.29177 56.73,5.31458 0.618,-3.95476 0,-3.33739 0.7414,-3.95512 0,-3.95513 0.6178,-3.95476 0,-31.63945 -0.1256,-0.98874 0.1256,-0.98874 0,-31.63982 -0.6178,-3.95476 0,-3.95476 -0.7414,-3.9554 0,-3.33674 -0.618,-3.95513 -56.73,5.31468 0,-7.29187 -0.7415,-3.95513 0,-3.95476 -0.618,-3.95503 -0.7415,-3.21333 0,-4.07818 -0.7416,-3.95476 -0.4956,-3.95549 -0.7415,-3.95467 -0.6184,-3.95513 -0.6176,-3.95476 -0.7416,-3.95476 -1.3594,-3.95512 -0.6178,-3.95513 -0.6183,-3.95503 -1.3592,-3.95476 -0.618,-3.95513 -1.3599,-3.95476 -1.2353,-3.95476 -0.7419,-4.69693 -1.2361,-3.95476 -1.3594,-3.95513 -1.3592,-3.95476 -1.2361,-3.95476 -1.3595,-3.95512 -1.3599,-4.57278 -1.2357,-3.95503 -1.3592,-3.95513 -1.3599,-3.95476 -1.3595,-3.95513 -1.8541,-4.07854 53.3922,-21.62859 -1.2364,-3.33711 -1.483,-3.33665 -1.2357,-3.21396 -1.3595,-3.33638 -1.2357,-3.95549 -1.9776,-3.33638 -1.3595,-3.33702 -1.9779,-3.95549 -1.3592,-3.21323 -1.9772,-3.95513 -1.3598,-3.33674 -1.8538,-3.95512 -1.9776,-3.33702 -2.1013,-3.95476 -1.8534,-3.21333 -2.1014,-3.95503 -1.9772,-3.33711 -1.9776,-3.95476 -1.9772,-3.33711 -1.9775,-3.33702 -1.9779,-3.95476 -1.9772,-3.21323 -1.9775,-3.33711 -2.5956,-3.95512 -1.9772,-3.33711 -1.9776,-3.33665 -2.5955,-3.21369 -2.1011,-3.33702 -1.8541,-3.21323 -2.7187,-2.71909 -1.9776,-3.33711 -2.5955,-3.2136 -46.2252,34.23503 -1.9776,-2.59521 -1.9772,-3.2136 -2.5956,-2.71909 -2.1013,-3.33711 -2.5956,-2.59485 -1.9772,-3.33701 -2.7191,-3.33711 -2.5956,-3.21323 -2.5952,-2.59558 -2.5956,-3.33711 -2.7191,-3.33711 -3.337,-3.2136 -2.5956,-3.33674 -2.5948,-2.59558 -3.3371,-3.33702 -2.5956,-3.33711 -3.3371,-3.33711 -3.3371,-2.59485 -2.719,-3.33711 -3.2136,-3.21359 -3.3368,-2.719 -3.3371,-3.33711 -2.5955,-2.59558 -3.2133,-2.59558 -3.3367,-2.71855 -3.214,-3.21332 -2.7183,-2.71918 -3.3374,-2.59558 -3.3368,-1.9772 -3.2132,-2.59549 -2.5959,-2.71918 -3.3368,-1.97775 34.9772,-46.09866 -2.5959,-2.71919 -2.719,-1.9772 -3.2133,-1.9777 -2.7194,-2.59551 -3.3367,-1.97716 -2.5953,-1.97773 -3.337,-1.97766 -2.5956,-2.59509 -3.3371,-1.97769 -2.5952,-2.10084 -3.3375,-1.97766 -3.3366,-1.85406 -3.3368,-2.10084 -3.2139,-1.9777 -3.3364,-1.97719 -2.5956,-1.9777 -3.3371,-1.97719 -3.9548,-1.97774 -3.2132,-1.97766 -3.4609,-1.97719 -3.2132,-1.97767 -3.3371,-1.2357 -3.3371,-1.97769 -3.9548,-2.10085 -3.2132,-1.97769 -3.3374,-1.23567 -3.9548,-1.9777 -3.3371,-1.97773 -3.9547,-1.35934 -3.2136,-1.9772 -3.9555,-1.97766 -3.9548,-1.35938 -22.4931,52.77489 -3.9551,-1.23567 -3.3371,-1.97772 -3.9548,-1.35935 -3.9555,-1.97766 -3.3366,-1.23574 -3.9551,-1.35985 -3.9552,-1.97719 -3.9547,-1.35985 -3.8309,-1.35934 -4.079,-1.23571 -3.9547,-1.35985 -3.9547,-1.35934 -3.9555,-1.23617 -3.9548,-1.35934 -3.9547,-1.35934 -3.9552,-0.61832 -4.6962,-1.35938 -3.9551,-1.23567 -3.9555,-0.74153 -3.9547,-1.35988 -4.5725,-0.61786 -3.955,-1.35934 -3.9548,-0.61831 -4.6966,-0.61785 -3.9548,-0.61786 -4.5727,-0.74149 -3.9551,-1.23617 -4.5731,-0.74149 -3.9548,0 -3.9547,-0.61785 -4.6963,-0.61786 -3.9552,-0.61785 5.932,-57.46963 -3.9548,0 -3.9546,-0.61785 -3.9548,-0.742 -3.9551,0 -3.9551,-0.61785 -3.9555,0 -3.9548,-0.74153 -7.9094,0 -3.3224,-0.82059 -31.0218,0 z m 10.6289,135.95189 21.1347,0.61783 20.269,1.35936 20.6402,3.33702 20.3928,3.95495 20.5159,5.31467 19.7749,6.55043 19.7751,7.16827 19.7742,8.65105 18.5391,9.88781 19.1572,11.2469 17.7976,11.86538 17.1789,13.84249 17.1799,13.84221 16.4374,15.81931 15.2024,17.17996 15.2021,17.79725 -1.3599,0 c 13.7043,17.70472 25.9124,36.59273 36.336,56.60331 l 0,-0.49569 2.1011,4.69666 c 24.8726,49.24681 39.1906,104.6876 40.1669,163.38687 l -0.1257,0 c 0.09,2.98897 0.2082,6.00802 0.2441,9.02241 -0.05,3.01375 -0.1578,6.0328 -0.2441,9.0214 l 0.1257,0 c -0.9776,58.69964 -15.2961,114.1408 -40.1669,163.38761 l -2.1011,4.69666 0,-0.4957 c -10.4236,20.01279 -22.6317,38.90079 -36.336,56.60369 l 1.3599,0 -15.2021,17.79689 -15.2024,17.17996 -16.4374,15.81944 -17.1799,13.8424 -17.1789,13.8429 -17.7976,11.8646 -19.1572,11.2466 -18.5391,9.8874 -19.7742,8.6517 -19.7751,7.1687 -19.7749,6.5496 -20.5159,5.3147 -20.3928,3.9551 -20.6402,3.3374 -20.269,1.3596 -21.1347,0.6176 -20.516,-0.6176 -21.1347,-1.3596 -20.5164,-3.3374 -20.3924,-3.9551 -20.516,-5.3147 -19.7748,-6.5496 -19.7752,-7.1687 -19.8979,-8.6517 -18.4154,-10.5051 -19.1568,-10.6289 -17.7979,-12.4823 -17.7973,-13.2248 -16.5616,-15.2017 -16.4374,-15.82009 -15.9432,-17.05535 -14.4601,-17.92113 0.7414,0 c -13.799,-17.99755 -25.9149,-37.24302 -36.336,-57.59206 l -0.1256,0.86495 -1.6068,-4.32584 c -24.3857,-48.85562 -38.5724,-103.70673 -39.5493,-161.78195 l 0.1256,0 c -0.09,-2.98925 -0.2045,-6.00766 -0.244,-9.02205 0.05,-3.01374 0.1579,-6.03279 0.244,-9.02213 l -0.1256,0 c 0.987,-58.05063 15.1733,-112.94517 39.5493,-161.78113 l 1.6068,-4.32585 0.1256,0.86495 c 10.4215,-20.35086 22.537,-39.59669 36.336,-57.59205 l -0.7414,0 14.4601,-17.92039 15.9432,-17.05572 16.4374,-15.82014 16.5616,-15.20203 17.7973,-13.22446 17.7979,-12.48267 19.1568,-10.62888 18.4154,-10.5051 19.8979,-8.65188 19.7752,-7.16826 19.7748,-6.54989 20.516,-5.31476 20.3924,-3.95485 20.5164,-3.33702 21.1347,-1.35991 20.516,-0.61783 z"
       id="path2125-9-9-9" />
    <g
       id="g4290"
       transform="matrix(3.5890279,0,0,3.5890279,-3715.4978,-2891.8173)">
      <text
         sodipodi:linespacing="125%"
         id="text4268"
         y="1071.4475"
         x="1454.761"
         style="font-size:163.73170471px;font-style:normal;font-variant:normal;font-weight:normal;font-stretch:normal;line-height:125%;letter-spacing:0px;word-spacing:0px;fill:#000000;fill-opacity:1;stroke:none;font-family:Ubuntu;-inkscape-font-specification:Ubuntu"
         xml:space="preserve"><tspan
           style="font-style:normal;font-weight:500;-inkscape-font-specification:Ubuntu Medium"
           y="1071.4475"
           x="1454.761"
           id="tspan4270"
           sodipodi:role="line">O</tspan></text>
      <text
         sodipodi:linespacing="125%"
         id="text4272"
         y="990.77393"
         x="1578.6193"
         style="font-size:55.60810089px;font-style:normal;font-variant:normal;font-weight:normal;font-stretch:normal;line-height:125%;letter-spacing:0px;word-spacing:0px;fill:#000000;fill-opacity:1;stroke:none;font-family:Ubuntu;-inkscape-font-specification:Ubuntu"
         xml:space="preserve"><tspan
           style="font-size:66.72973633px;font-style:normal;font-variant:normal;font-weight:normal;font-stretch:normal;font-family:Ubuntu;-inkscape-font-specification:Ubuntu"
           y="990.77393"
           x="1578.6193"
           id="tspan4274"
           sodipodi:role="line">n</tspan></text>
    </g>
    <text
       xml:space="preserve"
       style="font-size:143.56111145px;font-style:normal;font-variant:normal;font-weight:normal;font-stretch:normal;line-height:125%;letter-spacing:0px;word-spacing:0px;fill:#000000;fill-opacity:1;stroke:none;font-family:Ubuntu;-inkscape-font-specification:Ubuntu"
       x="5524.5791"
       y="950.37897"
       id="text4276"
       sodipodi:linespacing="125%"><tspan
         sodipodi:role="line"
         id="tspan4278"
         x="5524.5791"
         y="950.37897">.de</tspan></text>
    <flowRoot
       xml:space="preserve"
       id="flowRoot3138"
       style="fill:black;stroke:none;stroke-opacity:1;stroke-width:1px;stroke-linejoin:miter;stroke-linecap:butt;fill-opacity:1;font-family:Ubuntu;font-style:normal;font-weight:normal;font-size:40px;line-height:125%;letter-spacing:0px;word-spacing:0px;-inkscape-font-specification:Ubuntu;font-stretch:normal;font-variant:normal"><flowRegion
         id="flowRegion3140"><rect
           id="rect3142"
           width="1362.8572"
           height="425.71429"
           x="1258.5714"
           y="635.59479" /></flowRegion><flowPara
         id="flowPara3144"></flowPara></flowRoot>  </g>
</svg>
